<?xml version="1.0" encoding="iso-8859-1"?>
<!-- Generator: Adobe Illustrator 19.0.0, SVG Export Plug-In . SVG Version: 6.00 Build 0)  -->
<svg version="1.1" id="Capa_1" xmlns="http://www.w3.org/2000/svg" xmlns:xlink="http://www.w3.org/1999/xlink" x="0px" y="0px"
	 viewBox="0 0 480 480" style="enable-background:new 0 0 480 480;" xml:space="preserve">
<path style="fill:#F9EDE0;" d="M384,144c0-2.296-0.28-4.528-0.744-6.688C383.744,142.144,384,147.04,384,152V144z"/>
<path style="fill:#D1A482;" d="M200,72c0,48.64,82.296,88,184,88v-8h16c17.672,0,32,14.328,32,32s-14.328,32-32,32h-16v56
	c0,48.6,39.4,88,88,88V168c0-48.6-39.4-88-88-88h-19.424l0,0C339.672,37,293.272,8,240,8C160.472,8,96,72.472,96,152l0,0v8
	C149.064,160,200,120.64,200,72z M383.248,137.224c0.008,0.032,0,0.064,0.008,0.096c0.464,2.152,0.744,4.384,0.744,6.68v8
	c0-4.96-0.256-9.856-0.744-14.688c-0.52-5.112-1.336-10.144-2.376-15.08C381.928,127.136,382.728,132.136,383.248,137.224z"/>
<path style="fill:#F9EDE0;" d="M360,400h-56v-55.144c0,0-0.008,0-0.016,0.008C351.368,321.288,384,272.512,384,216h16
	c17.672,0,32-14.328,32-32s-14.328-32-32-32h-16v8c-101.704,0-184-39.36-184-88c0,48.64-50.936,88-104,88v-8H80
	c-17.672,0-32,14.328-32,32s14.328,32,32,32h16c0,56.512,32.632,105.288,80.016,128.864c0,0-0.008,0-0.016-0.008V400h-56l120,72
	L360,400z"/>
<path style="fill:#9BC9A8;" d="M472,448c0-26.512-21.488-48-48-48h-64l-120,72l-120-72H56c-26.512,0-48,21.488-48,48v32h464V448z"/>
<path style="fill:#F9EDE0;" d="M383.248,137.224c-0.52-5.088-1.32-10.08-2.368-14.992c1.04,4.944,1.856,9.968,2.376,15.08
	C383.248,137.288,383.256,137.248,383.248,137.224z"/>
<g>
	<circle style="fill:#4B413A;" cx="184" cy="192" r="16"/>
	<circle style="fill:#4B413A;" cx="296" cy="192" r="16"/>
	<path style="fill:#4B413A;" d="M16,448c0-22.056,17.944-40,40-40h61.784l118.096,70.856c2.536,1.52,5.696,1.52,8.232,0L362.216,408
		H424c22.056,0,40,17.944,40,40v32h16v-32c0-30.88-25.12-56-56-56h-64h-48v-42.184c28-15.128,50.592-38.848,64.568-67.528
		C381.728,330.4,422.544,368,472,368c4.416,0,8-3.584,8-8V168c0-52.936-43.064-96-96-96h-15C342.152,28.864,294.44,0,240,0
		C158.888,0,92.608,63.912,88.408,144H80c-22.056,0-40,17.944-40,40s17.944,40,40,40h8.408
		C91.256,278.376,122.64,325.312,168,349.816V392h-48H56c-30.88,0-56,25.12-56,56v32h16V448z M392,160h8c13.232,0,24,10.768,24,24
		s-10.768,24-24,24h-8V160z M377.784,88H384c44.112,0,80,35.888,80,80v183.6c-40.368-4.024-72-38.192-72-79.6v-48h8
		c22.056,0,40-17.944,40-40s-17.944-40-40-40h-8c0-2.6-0.28-5.288-0.832-8.008c-0.48-4.584-1.216-9.112-2.104-13.6
		c-0.296-1.472-0.688-2.904-1.024-4.368c-0.688-2.976-1.416-5.944-2.288-8.872c-0.592-2.008-1.264-3.976-1.936-5.952
		c-0.744-2.176-1.528-4.336-2.376-6.48c-0.936-2.376-1.912-4.728-2.96-7.048C378.232,89.12,378.04,88.552,377.784,88z M240,16
		c50.44,0,94.456,27.664,117.936,68.552c2.104,3.672,4,7.416,5.736,11.2c0.232,0.504,0.496,0.984,0.72,1.488
		c1.6,3.6,2.96,7.272,4.24,10.968c0.28,0.816,0.624,1.592,0.888,2.416c1.072,3.312,1.896,6.688,2.704,10.072
		c0.288,1.208,0.672,2.376,0.928,3.592c0.76,3.624,1.264,7.304,1.72,11c0.672,5.456,1.128,10.976,1.128,16.608
		C284.136,149.928,208,114.144,208,72h-16c0,44.112-39.48,80-88,80C104,77.008,165.008,16,240,16z M56,184c0-13.232,10.768-24,24-24
		h8v48h-8C66.768,208,56,197.232,56,184z M104,216v-48c45.424,0,84.048-27.064,98.176-64.616
		C226.84,140.16,294.04,166.296,376,167.904V216c0,53.568-31.208,99.864-76.32,122.024c-4.264,2.088-8.608,3.936-13.008,5.56
		c-0.504,0.184-1,0.376-1.512,0.552c-4.464,1.584-8.992,2.912-13.56,4.016c-0.384,0.088-0.752,0.208-1.136,0.296
		c-20.056,4.64-40.872,4.64-60.928,0c-0.384-0.088-0.752-0.2-1.136-0.296c-4.568-1.096-9.096-2.432-13.56-4.016
		c-0.504-0.176-1.008-0.368-1.512-0.552c-4.4-1.616-8.744-3.464-13.008-5.56C135.208,315.864,104,269.568,104,216z M176,408
		c4.416,0,8-3.584,8-8v-42.8c0.424,0.168,0.856,0.28,1.28,0.44c3.896,1.512,7.84,2.912,11.88,4.104
		c0.952,0.28,1.928,0.48,2.888,0.744c3.672,1,7.36,1.952,11.136,2.68c1.192,0.232,2.408,0.352,3.6,0.552
		c3.584,0.6,7.16,1.192,10.824,1.544c1.12,0.104,2.24,0.088,3.36,0.168C232.624,367.704,236.272,368,240,368s7.376-0.296,11.04-0.56
		c1.12-0.08,2.24-0.064,3.36-0.168c3.664-0.344,7.24-0.936,10.824-1.544c1.2-0.2,2.408-0.32,3.6-0.552
		c3.776-0.728,7.464-1.68,11.136-2.68c0.96-0.264,1.928-0.464,2.888-0.744c4.04-1.192,7.984-2.592,11.88-4.104
		c0.424-0.168,0.856-0.272,1.28-0.44V400c0,4.416,3.584,8,8,8h27.12L240,462.672L148.88,408H176z"/>
</g>
<g>
</g>
<g>
</g>
<g>
</g>
<g>
</g>
<g>
</g>
<g>
</g>
<g>
</g>
<g>
</g>
<g>
</g>
<g>
</g>
<g>
</g>
<g>
</g>
<g>
</g>
<g>
</g>
<g>
</g>
</svg>
