<svg id="color" enable-background="new 0 0 24 24" height="512" viewBox="0 0 24 24" width="512" xmlns="http://www.w3.org/2000/svg"><path d="m1.5 6.75v9.5c0 .69.56 1.25 1.25 1.25h4.85l-.34 1.5h-4.51c-1.52 0-2.75-1.23-2.75-2.75v-9.5c0-1.52 1.23-2.75 2.75-2.75h7.89l-1.1 1.5h-6.79c-.69 0-1.25.56-1.25 1.25z" fill="#607d8b"/><path d="m23.99 8.75v5.5c0 .96-.78 1.75-1.75 1.75h-.24v.25c0 1.52-1.23 2.75-2.75 2.75h-5.05l1.14-1.5h3.91c.69 0 1.25-.56 1.25-1.25v-1c0-.41.34-.75.75-.75h.99c.14 0 .25-.11.25-.25v-5.5c0-.14-.11-.25-.25-.25h-.99c-.41 0-.75-.34-.75-.75v-1c0-.69-.56-1.25-1.25-1.25h-2.59l.26-1.13c.03-.12.05-.24.05-.37h2.28c1.52 0 2.75 1.23 2.75 2.75v.25h.24c.97 0 1.75.79 1.75 1.75z" fill="#607d8b"/><path d="m7.25 16h.68l-.33 1.5h-4.85c-.69 0-1.25-.56-1.25-1.25v-9.5c0-.69.56-1.25 1.25-1.25h6.79l-4.5 6.12c-.62.84-.72 1.94-.24 2.87.47.93 1.41 1.51 2.45 1.51z" fill="#fafafa"/><path d="m22.49 8.75v5.5c0 .14-.11.25-.25.25h-.99c-.41 0-.75.34-.75.75v1c0 .69-.56 1.25-1.25 1.25h-3.91l3.85-5.09c.64-.84.74-1.94.27-2.88-.46-.95-1.41-1.53-2.46-1.53h-.91l.57-2.5h2.59c.69 0 1.25.56 1.25 1.25v1c0 .41.34.75.75.75h.99c.14 0 .25.11.25.25z" fill="#fafafa"/><path d="m1.5 11.5h-1.5v4.75c0 1.52 1.23 2.75 2.75 2.75h4.51l.34-1.5h-4.85c-.69 0-1.25-.56-1.25-1.25z" fill="#546d79"/><path d="m23.99 11.5h-1.5v2.75c0 .14-.11.25-.25.25h-.99c-.41 0-.75.34-.75.75v1c0 .69-.56 1.25-1.25 1.25h-3.91l-1.14 1.5h5.05c1.52 0 2.75-1.23 2.75-2.75v-.25h.24c.97 0 1.75-.79 1.75-1.75z" fill="#546d79"/><path d="m5.128 11.5h-3.628v4.75c0 .69.56 1.25 1.25 1.25h4.85l.33-1.5h-.68c-1.04 0-1.98-.58-2.45-1.51-.48-.93-.38-2.03.24-2.87z" fill="#dadada"/><path d="m22.49 11.5h-2.842c-.092.322-.246.63-.459.91l-3.85 5.09h3.91c.69 0 1.25-.56 1.25-1.25v-1c0-.41.34-.75.75-.75h.99c.14 0 .25-.11.25-.25v-2.75z" fill="#dadada"/><path d="m9.803 21c-.106 0-.213-.022-.315-.069-.32-.148-.493-.5-.417-.844l1.358-6.087h-3.179c-.283 0-.542-.159-.669-.412-.127-.252-.103-.555.065-.783l6.989-9.5c.209-.287.592-.388.917-.237.323.148.498.502.418.849l-1.393 6.083h3.423c.285 0 .545.161.671.416.127.255.098.56-.074.787l-7.197 9.5c-.145.192-.368.297-.597.297z" fill="#ffc107"/><path d="m17 10h-3.423l-3.147 4-1.358 6.087c-.077.344.097.695.417.844.1.047.208.069.314.069.229 0 .453-.105.598-.297l7.197-9.5c.172-.227.201-.532.074-.787s-.387-.416-.672-.416z" fill="#dea806"/></svg>