<svg id="Capa_1" enable-background="new 0 0 512 512" height="512" viewBox="0 0 512 512" width="512" xmlns="http://www.w3.org/2000/svg"><g><g><path d="m256 421c-90.967 0-165-74.019-165-165s74.033-165 165-165 165 74.019 165 165-74.033 165-165 165z" fill="#ffe666"/></g><path d="m421 256c0-90.981-74.033-165-165-165v330c90.967 0 165-74.019 165-165z" fill="#fabe2c"/><g><g><path d="m330.5 252.15c-1.11-4.16-3.95-7.65-7.79-9.57l-51.71-25.85v-50.73c0-6.61-4.34-12.44-10.66-14.36-2.323-.702-4.296-.65-4.34-.65-4.93-.01-9.65 2.44-12.48 6.69l-60 90c-2.37 3.57-3.14 8.01-2.02 12.17 1.11 4.16 3.95 7.65 7.79 9.57l51.71 25.85v50.73c0 6.61 4.34 12.44 10.66 14.36 1.43.44 2.89.65 4.34.65 4.89 0 9.62-2.41 12.48-6.69l60-90c2.37-3.57 3.14-8.01 2.02-12.17z" fill="#704c55"/></g></g><g id="Energy_3_"><g><path d="m363.021 471.347-15-25.986c-4.16-7.178-1.699-16.348 5.479-20.493 7.178-4.131 16.348-1.714 20.479 5.493l15 25.986c4.16 7.178 1.699 16.348-5.479 20.493-7.242 4.157-16.399 1.625-20.479-5.493z" fill="#fabe2c"/></g><g><path d="m138.021 81.64-15-25.986c-4.16-7.178-1.699-16.348 5.479-20.493 7.119-4.16 16.348-1.699 20.479 5.493l15 25.986c4.16 7.178 1.699 16.348-5.479 20.493-7.242 4.157-16.399 1.625-20.479-5.493z" fill="#ffe666"/></g><g><path d="m35.189 383.5c-4.16-7.163-1.699-16.348 5.479-20.493l25.956-15c7.061-4.146 16.319-1.729 20.479 5.493 4.16 7.163 1.699 16.348-5.479 20.493l-25.956 15c-7.04 4.092-16.283 1.772-20.479-5.493z" fill="#ffe666"/></g><g><path d="m424.896 158.5c-4.16-7.163-1.699-16.348 5.478-20.493l25.958-15c7.061-4.146 16.289-1.699 20.479 5.493 4.16 7.163 1.699 16.348-5.479 20.493l-25.958 15c-7.055 4.102-16.29 1.759-20.478-5.493z" fill="#fabe2c"/></g><g><path d="m456.332 388.993-25.958-15c-7.177-4.146-9.638-13.33-5.478-20.493 4.16-7.192 13.301-9.595 20.478-5.493l25.958 15c7.178 4.146 9.639 13.33 5.479 20.493-4.136 7.161-13.27 9.632-20.479 5.493z" fill="#fabe2c"/></g><g><path d="m66.624 163.993-25.956-15c-7.178-4.146-9.639-13.33-5.479-20.493 4.16-7.178 13.33-9.595 20.479-5.493l25.956 15c7.178 4.146 9.639 13.33 5.479 20.493-4.125 7.143-13.249 9.642-20.479 5.493z" fill="#ffe666"/></g><g><path d="m128.5 476.84c-7.178-4.146-9.639-13.315-5.479-20.493l15-25.986c4.131-7.178 13.33-9.58 20.479-5.493 7.178 4.146 9.639 13.315 5.479 20.493l-15 25.986c-4.081 7.119-13.238 9.65-20.479 5.493z" fill="#ffe666"/></g><g><path d="m353.5 87.133c-7.178-4.146-9.639-13.315-5.479-20.493l15-25.986c4.131-7.178 13.33-9.609 20.479-5.493 7.178 4.146 9.639 13.315 5.479 20.493l-15 25.986c-4.081 7.119-13.238 9.65-20.479 5.493z" fill="#fabe2c"/></g><g><path d="m256 512c-8.291 0-15-6.709-15-15v-31c0-8.291 6.709-15 15-15s15 6.709 15 15v31c0 8.291-6.709 15-15 15z" fill="#ffe666"/></g><g><path d="m256 61c-8.291 0-15-6.709-15-15v-31c0-8.291 6.709-15 15-15s15 6.709 15 15v31c0 8.291-6.709 15-15 15z" fill="#ffe666"/></g><g><path d="m46 271h-31c-8.291 0-15-6.709-15-15s6.709-15 15-15h31c8.291 0 15 6.709 15 15s-6.709 15-15 15z" fill="#ffe666"/></g><g><path d="m497 271h-31c-8.291 0-15-6.709-15-15s6.709-15 15-15h31c8.291 0 15 6.709 15 15s-6.709 15-15 15z" fill="#fabe2c"/></g></g><path d="m271 46v-31c0-8.291-6.709-15-15-15v61c8.291 0 15-6.709 15-15z" fill="#fabe2c"/><path d="m271 497v-31c0-8.291-6.709-15-15-15v61c8.291 0 15-6.709 15-15z" fill="#fabe2c"/><path d="m328.48 264.32-60 90c-2.86 4.28-7.59 6.69-12.48 6.69v-210.02c.044 0 2.017-.052 4.34.65 6.32 1.92 10.66 7.75 10.66 14.36v50.73l51.71 25.85c3.84 1.92 6.68 5.41 7.79 9.57 1.12 4.16.35 8.6-2.02 12.17z" fill="#5b362a"/></g></svg>